<svg viewBox="0 0 24 24" fill="none">
  <path d="M12 15a3 3 0 1 0 0-6 3 3 0 0 0 0 6z" stroke="#000" stroke-width="2"/>
  <path d="M19.4 15a1.65 1.65 0 0 0 .33 1.82l.06.06a2 2 0 1 1-2.83 2.83l-.06-.06A1.65 1.65 0 0 0 15 19.4a1.65 1.65 0 0 0-1 .6 1.65 1.65 0 0 0-.4 1v.17a2 2 0 0 1-4 0v-.17a1.65 1.65 0 0 0-.4-1 1.65 1.65 0 0 0-1-.6 1.65 1.65 0 0 0-1.82.33l-.06.06a2 2 0 1 1-2.83-2.83l.06-.06A1.65 1.65 0 0 0 4.6 15a1.65 1.65 0 0 0-.6-1 1.65 1.65 0 0 0-1-.4H3a2 2 0 0 1 0-4h.17a1.65 1.65 0 0 0 1-.4 1.65 1.65 0 0 0 .6-1 1.65 1.65 0 0 0-.33-1.82l-.06-.06a2 2 0 0 1 2.83-2.83l-.06.06A1.65 1.65 0 0 0 9 4.6a1.65 1.65 0 0 0 1-.6 1.65 1.65 0 0 0 .4-1V3a2 2 0 0 1 4 0v.17a1.65 1.65 0 0 0 .4 1 1.65 1.65 0 0 0 1 .6 1.65 1.65 0 0 0 1.82-.33l.06-.06a2 2 0 1 1 2.83 2.83l-.06.06A1.65 1.65 0 0 0 19.4 9c.17.4.26.83.26 1.28V12c0 .45-.09.88-.26 1.28z" 
    stroke="#000" stroke-width="2" stroke-linecap="round" stroke-linejoin="round"/>
</svg>